<svg width="65" height="62" viewBox="0 0 65 62" fill="none" xmlns="http://www.w3.org/2000/svg">
<path d="M20.6286 60.0626C20.6286 60.8266 19.9821 61.4731 19.2181 61.4731C18.4541 61.4731 17.8076 60.8266 17.8076 60.0626C17.8076 59.2986 18.4541 58.6521 19.2181 58.6521C19.9821 58.7109 20.6286 59.2986 20.6286 60.0626Z" fill="#D3D3FF"/>
<path d="M29.5023 60.0626C29.5023 60.8266 28.8558 61.4731 28.0918 61.4731C27.3278 61.4731 26.6813 60.8266 26.6813 60.0626C26.6813 59.2986 27.3278 58.6521 28.0918 58.6521C28.8558 58.7109 29.5023 59.2986 29.5023 60.0626Z" fill="#D3D3FF"/>
<path d="M38.377 60.0626C38.377 60.8266 37.7305 61.4731 36.9665 61.4731C36.2025 61.4731 35.556 60.8266 35.556 60.0626C35.556 59.2986 36.2025 58.6521 36.9665 58.6521C37.7305 58.7109 38.377 59.2986 38.377 60.0626Z" fill="#D3D3FF"/>
<path d="M47.2514 60.0626C47.2514 60.8266 46.6049 61.4731 45.8409 61.4731C45.0769 61.4731 44.4304 60.8266 44.4304 60.0626C44.4304 59.2986 45.0769 58.6521 45.8409 58.6521C46.6049 58.7109 47.2514 59.2986 47.2514 60.0626Z" fill="#D3D3FF"/>
<path d="M11.695 51.7183C11.695 52.4823 11.0485 53.1288 10.2845 53.1288C9.52046 53.1288 8.87398 52.4823 8.87398 51.7183C8.87398 50.9543 9.52046 50.3078 10.2845 50.3078C11.1073 50.3078 11.695 50.9543 11.695 51.7183Z" fill="#D3D3FF"/>
<path d="M20.6286 51.7183C20.6286 52.4823 19.9821 53.1288 19.2181 53.1288C18.4541 53.1288 17.8076 52.4823 17.8076 51.7183C17.8076 50.9543 18.4541 50.3078 19.2181 50.3078C19.9821 50.3078 20.6286 50.9543 20.6286 51.7183Z" fill="#D3D3FF"/>
<path d="M29.5023 51.7183C29.5023 52.4823 28.8558 53.1288 28.0918 53.1288C27.3278 53.1288 26.6813 52.4823 26.6813 51.7183C26.6813 50.9543 27.3278 50.3078 28.0918 50.3078C28.8558 50.3078 29.5023 50.9543 29.5023 51.7183Z" fill="#D3D3FF"/>
<path d="M38.377 51.7183C38.377 52.4823 37.7305 53.1288 36.9665 53.1288C36.2025 53.1288 35.556 52.4823 35.556 51.7183C35.556 50.9543 36.2025 50.3078 36.9665 50.3078C37.7305 50.3078 38.377 50.9543 38.377 51.7183Z" fill="#D3D3FF"/>
<path d="M47.2514 51.7183C47.2514 52.4823 46.6049 53.1288 45.8409 53.1288C45.0769 53.1288 44.4304 52.4823 44.4304 51.7183C44.4304 50.9543 45.0769 50.3078 45.8409 50.3078C46.6049 50.3078 47.2514 50.9543 47.2514 51.7183Z" fill="#D3D3FF"/>
<path d="M56.1251 51.7183C56.1251 52.4823 55.4786 53.1288 54.7146 53.1288C53.9506 53.1288 53.3041 52.4823 53.3041 51.7183C53.3041 50.9543 53.9506 50.3078 54.7146 50.3078C55.5374 50.3078 56.1251 50.9543 56.1251 51.7183Z" fill="#D3D3FF"/>
<path d="M11.695 43.3133C11.695 44.0773 11.0485 44.7238 10.2845 44.7238C9.52046 44.7238 8.87398 44.0773 8.87398 43.3133C8.87398 42.5493 9.52046 41.9028 10.2845 41.9028C11.1073 41.9028 11.695 42.5493 11.695 43.3133Z" fill="#D3D3FF"/>
<path d="M20.6286 43.3133C20.6286 44.0773 19.9821 44.7238 19.2181 44.7238C18.4541 44.7238 17.8076 44.0773 17.8076 43.3133C17.8076 42.5493 18.4541 41.9028 19.2181 41.9028C19.9821 41.9028 20.6286 42.5493 20.6286 43.3133Z" fill="#D3D3FF"/>
<path d="M29.5023 43.3133C29.5023 44.0773 28.8558 44.7238 28.0918 44.7238C27.3278 44.7238 26.6813 44.0773 26.6813 43.3133C26.6813 42.5493 27.3278 41.9028 28.0918 41.9028C28.8558 41.9028 29.5023 42.5493 29.5023 43.3133Z" fill="#D3D3FF"/>
<path d="M38.377 43.3133C38.377 44.0773 37.7305 44.7238 36.9665 44.7238C36.2025 44.7238 35.556 44.0773 35.556 43.3133C35.556 42.5493 36.2025 41.9028 36.9665 41.9028C37.7305 41.9028 38.377 42.5493 38.377 43.3133Z" fill="#D3D3FF"/>
<path d="M47.2514 43.3133C47.2514 44.0773 46.6049 44.7238 45.8409 44.7238C45.0769 44.7238 44.4304 44.0773 44.4304 43.3133C44.4304 42.5493 45.0769 41.9028 45.8409 41.9028C46.6049 41.9028 47.2514 42.5493 47.2514 43.3133Z" fill="#D3D3FF"/>
<path d="M56.1251 43.3135C56.1251 44.0775 55.4786 44.7239 54.7146 44.7239C53.9506 44.7239 53.3041 44.0775 53.3041 43.3135C53.3041 42.5494 53.9506 41.903 54.7146 41.903C55.5374 41.903 56.1251 42.5494 56.1251 43.3135Z" fill="#D3D3FF"/>
<path d="M2.82098 34.9103C2.82098 35.6743 2.1745 36.3208 1.41049 36.3208C0.646473 36.3208 0 35.6743 0 34.9103C0 34.1463 0.646473 33.4998 1.41049 33.4998C2.23327 33.5586 2.82098 34.1463 2.82098 34.9103Z" fill="#D3D3FF"/>
<path d="M11.695 34.9103C11.695 35.6743 11.0485 36.3208 10.2845 36.3208C9.52046 36.3208 8.87398 35.6743 8.87398 34.9103C8.87398 34.1463 9.52046 33.4998 10.2845 33.4998C11.1073 33.5586 11.695 34.1463 11.695 34.9103Z" fill="#D3D3FF"/>
<path d="M20.6286 34.9103C20.6286 35.6743 19.9821 36.3208 19.2181 36.3208C18.4541 36.3208 17.8076 35.6743 17.8076 34.9103C17.8076 34.1463 18.4541 33.4998 19.2181 33.4998C19.9821 33.5586 20.6286 34.1463 20.6286 34.9103Z" fill="#D3D3FF"/>
<path d="M29.5023 34.9103C29.5023 35.6743 28.8558 36.3208 28.0918 36.3208C27.3278 36.3208 26.6813 35.6743 26.6813 34.9103C26.6813 34.1463 27.3278 33.4998 28.0918 33.4998C28.8558 33.5586 29.5023 34.1463 29.5023 34.9103Z" fill="#D3D3FF"/>
<path d="M38.377 34.9103C38.377 35.6743 37.7305 36.3208 36.9665 36.3208C36.2025 36.3208 35.556 35.6743 35.556 34.9103C35.556 34.1463 36.2025 33.4998 36.9665 33.4998C37.7305 33.5586 38.377 34.1463 38.377 34.9103Z" fill="#D3D3FF"/>
<path d="M47.2514 34.9103C47.2514 35.6743 46.6049 36.3208 45.8409 36.3208C45.0769 36.3208 44.4304 35.6743 44.4304 34.9103C44.4304 34.1463 45.0769 33.4998 45.8409 33.4998C46.6049 33.5586 47.2514 34.1463 47.2514 34.9103Z" fill="#D3D3FF"/>
<path d="M56.1251 34.9103C56.1251 35.6743 55.4786 36.3208 54.7146 36.3208C53.9506 36.3208 53.3041 35.6743 53.3041 34.9103C53.3041 34.1463 53.9506 33.4998 54.7146 33.4998C55.5374 33.5586 56.1251 34.1463 56.1251 34.9103Z" fill="#D3D3FF"/>
<path d="M65 34.9103C65 35.6743 64.3535 36.3208 63.5895 36.3208C62.8255 36.3208 62.179 35.6743 62.179 34.9103C62.179 34.1463 62.8255 33.4998 63.5895 33.4998C64.4123 33.5586 65 34.1463 65 34.9103Z" fill="#D3D3FF"/>
<path d="M2.82098 26.5646C2.82098 27.3287 2.1745 27.9751 1.41049 27.9751C0.646473 27.9751 0 27.3287 0 26.5646C0 25.8006 0.646473 25.1541 1.41049 25.1541C2.23327 25.1541 2.82098 25.8006 2.82098 26.5646Z" fill="#D3D3FF"/>
<path d="M11.695 26.5646C11.695 27.3287 11.0485 27.9751 10.2845 27.9751C9.52046 27.9751 8.87398 27.3287 8.87398 26.5646C8.87398 25.8006 9.52046 25.1541 10.2845 25.1541C11.1073 25.1541 11.695 25.8006 11.695 26.5646Z" fill="#D3D3FF"/>
<path d="M20.6286 26.5646C20.6286 27.3287 19.9821 27.9751 19.2181 27.9751C18.4541 27.9751 17.8076 27.3287 17.8076 26.5646C17.8076 25.8006 18.4541 25.1541 19.2181 25.1541C19.9821 25.1541 20.6286 25.8006 20.6286 26.5646Z" fill="#D3D3FF"/>
<path d="M29.5023 26.5646C29.5023 27.3287 28.8558 27.9751 28.0918 27.9751C27.3278 27.9751 26.6813 27.3287 26.6813 26.5646C26.6813 25.8006 27.3278 25.1541 28.0918 25.1541C28.8558 25.1541 29.5023 25.8006 29.5023 26.5646Z" fill="#D3D3FF"/>
<path d="M38.377 26.5646C38.377 27.3287 37.7305 27.9751 36.9665 27.9751C36.2025 27.9751 35.556 27.3287 35.556 26.5646C35.556 25.8006 36.2025 25.1541 36.9665 25.1541C37.7305 25.1541 38.377 25.8006 38.377 26.5646Z" fill="#D3D3FF"/>
<path d="M47.2514 26.5646C47.2514 27.3287 46.6049 27.9751 45.8409 27.9751C45.0769 27.9751 44.4304 27.3287 44.4304 26.5646C44.4304 25.8006 45.0769 25.1541 45.8409 25.1541C46.6049 25.1541 47.2514 25.8006 47.2514 26.5646Z" fill="#D3D3FF"/>
<path d="M56.1251 26.5646C56.1251 27.3287 55.4786 27.9751 54.7146 27.9751C53.9506 27.9751 53.3041 27.3287 53.3041 26.5646C53.3041 25.8006 53.9506 25.1541 54.7146 25.1541C55.5374 25.1541 56.1251 25.8006 56.1251 26.5646Z" fill="#D3D3FF"/>
<path d="M65 26.5646C65 27.3287 64.3535 27.9751 63.5895 27.9751C62.8255 27.9751 62.179 27.3287 62.179 26.5646C62.179 25.8006 62.8255 25.1541 63.5895 25.1541C64.4123 25.1541 65 25.8006 65 26.5646Z" fill="#D3D3FF"/>
<path d="M11.695 18.1598C11.695 18.9238 11.0485 19.5703 10.2845 19.5703C9.52046 19.5703 8.87398 18.9238 8.87398 18.1598C8.87398 17.3958 9.52046 16.7493 10.2845 16.7493C11.1073 16.7493 11.695 17.3958 11.695 18.1598Z" fill="#D3D3FF"/>
<path d="M20.6286 18.1598C20.6286 18.9238 19.9821 19.5703 19.2181 19.5703C18.4541 19.5703 17.8076 18.9238 17.8076 18.1598C17.8076 17.3958 18.4541 16.7493 19.2181 16.7493C19.9821 16.7493 20.6286 17.3958 20.6286 18.1598Z" fill="#D3D3FF"/>
<path d="M29.5023 18.1598C29.5023 18.9238 28.8558 19.5703 28.0918 19.5703C27.3278 19.5703 26.6813 18.9238 26.6813 18.1598C26.6813 17.3958 27.3278 16.7493 28.0918 16.7493C28.8558 16.7493 29.5023 17.3958 29.5023 18.1598Z" fill="#D3D3FF"/>
<path d="M38.377 18.1598C38.377 18.9238 37.7305 19.5703 36.9665 19.5703C36.2025 19.5703 35.556 18.9238 35.556 18.1598C35.556 17.3958 36.2025 16.7493 36.9665 16.7493C37.7305 16.7493 38.377 17.3958 38.377 18.1598Z" fill="#D3D3FF"/>
<path d="M47.2514 18.1598C47.2514 18.9238 46.6049 19.5703 45.8409 19.5703C45.0769 19.5703 44.4304 18.9238 44.4304 18.1598C44.4304 17.3958 45.0769 16.7493 45.8409 16.7493C46.6049 16.7493 47.2514 17.3958 47.2514 18.1598Z" fill="#D3D3FF"/>
<path d="M56.1251 18.1596C56.1251 18.9236 55.4786 19.57 54.7146 19.57C53.9506 19.57 53.3041 18.9236 53.3041 18.1596C53.3041 17.3955 53.9506 16.7491 54.7146 16.7491C55.5374 16.7491 56.1251 17.3955 56.1251 18.1596Z" fill="#D3D3FF"/>
<path d="M11.695 9.75613C11.695 10.5201 11.0485 11.1666 10.2845 11.1666C9.52046 11.1666 8.87398 10.5201 8.87398 9.75613C8.87398 8.99211 9.52046 8.34564 10.2845 8.34564C11.1073 8.40441 11.695 8.99211 11.695 9.75613Z" fill="#D3D3FF"/>
<path d="M20.6286 9.75613C20.6286 10.5201 19.9821 11.1666 19.2181 11.1666C18.4541 11.1666 17.8076 10.5201 17.8076 9.75613C17.8076 8.99211 18.4541 8.34564 19.2181 8.34564C19.9821 8.40441 20.6286 8.99211 20.6286 9.75613Z" fill="#D3D3FF"/>
<path d="M29.5023 9.75613C29.5023 10.5201 28.8558 11.1666 28.0918 11.1666C27.3278 11.1666 26.6813 10.5201 26.6813 9.75613C26.6813 8.99211 27.3278 8.34564 28.0918 8.34564C28.8558 8.40441 29.5023 8.99211 29.5023 9.75613Z" fill="#D3D3FF"/>
<path d="M38.377 9.75613C38.377 10.5201 37.7305 11.1666 36.9665 11.1666C36.2025 11.1666 35.556 10.5201 35.556 9.75613C35.556 8.99211 36.2025 8.34564 36.9665 8.34564C37.7305 8.40441 38.377 8.99211 38.377 9.75613Z" fill="#D3D3FF"/>
<path d="M47.2514 9.75613C47.2514 10.5201 46.6049 11.1666 45.8409 11.1666C45.0769 11.1666 44.4304 10.5201 44.4304 9.75613C44.4304 8.99211 45.0769 8.34564 45.8409 8.34564C46.6049 8.40441 47.2514 8.99211 47.2514 9.75613Z" fill="#D3D3FF"/>
<path d="M56.1251 9.75588C56.1251 10.5199 55.4786 11.1664 54.7146 11.1664C53.9506 11.1664 53.3041 10.5199 53.3041 9.75588C53.3041 8.99187 53.9506 8.3454 54.7146 8.3454C55.5374 8.40417 56.1251 8.99187 56.1251 9.75588Z" fill="#D3D3FF"/>
<path d="M20.6286 1.41049C20.6286 2.1745 19.9821 2.82098 19.2181 2.82098C18.4541 2.82098 17.8076 2.1745 17.8076 1.41049C17.8076 0.646474 18.4541 0 19.2181 0C19.9821 0 20.6286 0.646474 20.6286 1.41049Z" fill="#D3D3FF"/>
<path d="M29.5023 1.41049C29.5023 2.1745 28.8558 2.82098 28.0918 2.82098C27.3278 2.82098 26.6813 2.1745 26.6813 1.41049C26.6813 0.646474 27.3278 0 28.0918 0C28.8558 0 29.5023 0.646474 29.5023 1.41049Z" fill="#D3D3FF"/>
<path d="M38.377 1.41049C38.377 2.1745 37.7305 2.82098 36.9665 2.82098C36.2025 2.82098 35.556 2.1745 35.556 1.41049C35.556 0.646474 36.2025 0 36.9665 0C37.7305 0 38.377 0.646474 38.377 1.41049Z" fill="#D3D3FF"/>
<path d="M47.2514 1.41049C47.2514 2.1745 46.6049 2.82098 45.8409 2.82098C45.0769 2.82098 44.4304 2.1745 44.4304 1.41049C44.4304 0.646474 45.0769 0 45.8409 0C46.6049 0 47.2514 0.646474 47.2514 1.41049Z" fill="#D3D3FF"/>
</svg>
