<svg width="56" height="56" viewBox="0 0 56 56" fill="none" xmlns="http://www.w3.org/2000/svg">
<path d="M29.5634 9.97297C28.6686 9.69074 27.6928 9.75521 26.8437 10.1569C25.9073 10.6 25.1927 11.4235 24.9246 12.4382L24.1106 15.5191C23.8806 16.3897 23.5452 17.2315 23.1117 18.0281C22.5324 19.0929 21.6055 19.999 20.4855 20.9465L18.0236 23.0294C16.9862 23.9071 16.4342 25.2292 16.5536 26.5846L17.9433 42.3643C18.1362 44.5541 19.9922 46.2 22.1759 46.2H30.1302C36.711 46.2 42.4224 41.6904 43.529 35.408L44.7362 28.554C45.1937 25.9566 43.1594 23.6335 40.5506 23.6335H31.6852L31.6785 23.6332C31.6756 23.633 31.6722 23.6323 31.6722 23.6323L31.667 23.6305L31.6622 23.6276L32.7944 16.8424C33.0113 15.5427 32.9493 14.2127 32.6126 12.9382C32.2461 11.551 31.1699 10.4797 29.8115 10.0512L29.5634 9.97297Z" fill="#FF715B"/>
<path d="M13.9946 24.9107C13.9288 24.1642 13.2871 23.6019 12.5385 23.6348C11.7899 23.6677 11.2 24.2842 11.2 25.0335V43.9814C11.2 45.2293 12.2224 46.2 13.4328 46.2C14.7168 46.2 15.7735 45.1102 15.6571 43.788L13.9946 24.9107Z" fill="#FF715B"/>
</svg>
