<svg width="40" height="40" viewBox="0 0 40 40" fill="none" xmlns="http://www.w3.org/2000/svg">
<path fill-rule="evenodd" clip-rule="evenodd" d="M22 29.9563C22 28.5932 22 27.5092 22.0715 26.6346C22.0823 26.5018 22.0949 26.372 22.1097 26.2448C21.4832 26.4425 20.8181 26.5491 20.1291 26.5491C17.6019 26.5491 15.4159 25.1209 14.2553 23.0354C13.9867 22.5528 14.1602 21.9439 14.6428 21.6753C15.1254 21.4068 15.7343 21.5803 16.0029 22.0628C16.8384 23.5642 18.3832 24.5491 20.1291 24.5491C21.0308 24.5491 21.8733 24.2879 22.5939 23.8314C22.8286 23.6827 23.0505 23.5131 23.2573 23.3249C23.7961 22.6296 24.4842 22.0575 25.2761 21.654C25.9753 21.2977 26.739 21.1446 27.6346 21.0715C28.5092 21 29.5932 21 30.9563 21H30.9911H32.9924C33.0001 20.3675 33.0001 19.6615 33 18.8619L33 18.6667L33 18.4795C33.0003 16.178 33.0004 14.8165 32.6934 13.6707C31.8612 10.5648 29.4352 8.1389 26.3294 7.30669C25.1836 6.99967 23.8221 6.9998 21.5206 7.00001L21.3334 7.00002H19.9625C18.1305 7.00002 16.7045 7.00002 15.5547 7.07846C14.3881 7.15806 13.4331 7.32174 12.5559 7.68511C10.3506 8.59855 8.59855 10.3506 7.68511 12.5559C7.32174 13.4331 7.15806 14.3881 7.07846 15.5547C7.00002 16.7045 7.00002 18.1305 7.00002 19.9625V21.3334L7.00001 21.5206C6.9998 23.8221 6.99967 25.1836 7.30669 26.3294C8.1389 29.4352 10.5648 31.8612 13.6707 32.6934C14.8165 33.0004 16.178 33.0003 18.4795 33L18.6667 33L18.8619 33C20.1108 33.0001 21.1313 33.0002 22 32.9707L21.9553 30.9706L22 30.969V29.9563ZM24.2456 17.9539C25.0613 17.9539 25.7225 17.2926 25.7225 16.4769C25.7225 15.6613 25.0613 15 24.2456 15C23.4299 15 22.7687 15.6613 22.7687 16.4769C22.7687 17.2926 23.4299 17.9539 24.2456 17.9539ZM15.9379 17.9539C16.7536 17.9539 17.4148 17.2926 17.4148 16.4769C17.4148 15.6613 16.7536 15 15.9379 15C15.1222 15 14.461 15.6613 14.461 16.4769C14.461 17.2926 15.1222 17.9539 15.9379 17.9539Z" fill="#293FCC"/>
<path d="M24.847 32.6252C26.3056 32.2344 27.6415 31.556 28.7913 30.6533C31.2116 28.9311 32.8322 26.1582 32.9877 23H30.9117C29.5416 23.0001 28.5647 23.0021 27.7975 23.0648C27.0255 23.1279 26.5544 23.2473 26.1841 23.436C25.4314 23.8195 24.8195 24.4314 24.436 25.1841C24.2473 25.5544 24.1279 26.0255 24.0648 26.7975C24.0008 27.5811 24 28.5834 24 30V30.4381V32.803C24.2971 32.7559 24.5771 32.6975 24.847 32.6252Z" fill="#293FCC"/>
</svg>
