<svg width="80" height="78" viewBox="0 0 80 78" fill="none" xmlns="http://www.w3.org/2000/svg">
<g clip-path="url(#clip0_1_1930)">
<path d="M68.7705 67.0285C67.1731 68.7069 65.6618 69.7892 64.4677 70.6444C50.4316 80.6961 33.8229 77.7661 30.2933 77.0504C25.0809 75.9938 15.0054 73.9513 7.72118 65.4017C-3.29945 52.4665 -1.58349 32.0879 6.96479 18.6354C8.52836 16.1748 16.788 2.51752 33.5754 0.327395C43.7349 -0.998047 55.5778 1.67512 64.154 8.84667C82.1563 23.8998 80.8746 54.3101 68.7705 67.0285Z" fill="url(#paint0_linear_1_1930)"/>
<path d="M74.1778 8.49726C74.0246 8.08024 73.4116 8.1457 73.3522 8.58584C72.7764 12.8413 70.9158 23.9524 66.5464 30.3219C59.4319 40.6929 55.9352 56.4063 62.4055 63.3864C62.4055 63.3864 90.8747 53.9317 74.1778 8.49726Z" fill="#BDD0FB"/>
<path opacity="0.43" d="M74.189 14.4526C74.1973 14.588 74.1934 14.7002 74.1948 14.8211L74.1906 15.1777L74.1742 15.89C74.1599 16.3647 74.1384 16.8391 74.1169 17.3135C74.0703 18.262 74.012 19.2097 73.945 20.1572C73.8074 22.0515 73.6185 23.9418 73.401 25.8292C73.1861 27.7168 72.9185 29.5985 72.6109 31.4736C72.3016 33.3484 71.9658 35.2195 71.5684 37.0787C70.781 40.7979 69.7905 44.4778 68.5431 48.0731C67.9006 49.8637 67.2109 51.6388 66.4197 53.3698C65.6161 55.0948 64.7386 56.7862 63.7416 58.4067C63.7198 58.4418 63.6738 58.4529 63.6383 58.4312C63.604 58.41 63.5926 58.3657 63.6121 58.3309L63.6127 58.3301C64.5427 56.6784 65.3819 54.98 66.1358 53.2442C66.8947 51.5101 67.552 49.7337 68.1621 47.9427C68.7714 46.1509 69.3079 44.3349 69.8033 42.5081C70.2979 40.6806 70.7166 38.8337 71.1249 36.9848C71.9257 33.2826 72.528 29.5395 73.0267 25.7832C73.2721 23.9045 73.4797 22.0205 73.6536 20.1332C73.7421 19.1897 73.8219 18.2453 73.89 17.3001L73.981 15.8817L74.0193 15.1724L74.0343 14.8178C74.0374 14.7016 74.0427 14.5768 74.0413 14.4749V14.4582C74.0405 14.4172 74.0731 14.3835 74.1142 14.3829C74.1541 14.3824 74.187 14.4133 74.1895 14.4526H74.189Z" fill="white"/>
<path d="M55.5941 0.586945C55.3396 0.246253 54.7956 0.47301 54.8612 0.892817C55.4962 4.95216 56.8272 15.6482 54.5611 22.6791C50.8716 34.1267 51.9596 49.489 59.8011 54.1284C59.8011 54.1284 83.3245 37.7063 55.5941 0.586945Z" fill="#91B3FA"/>
<path opacity="0.43" d="M57.2331 6.04501C57.278 6.16702 57.3051 6.27093 57.3391 6.38152L57.4326 6.70968L57.6124 7.36739C57.7293 7.80669 57.8393 8.2474 57.9493 8.68837C58.1661 9.57089 58.3718 10.4559 58.5694 11.3429C58.9613 13.1177 59.3049 14.9025 59.6214 16.6923C59.9407 18.4818 60.2095 20.2803 60.44 22.0838C60.6689 23.8872 60.8727 25.6949 61.0164 27.5078C61.3111 31.1329 61.408 34.7777 61.2467 38.4145C61.1467 40.2316 60.9991 42.0473 60.7462 43.8502C60.4802 45.6509 60.1378 47.441 59.6655 49.1982C59.6549 49.2372 59.615 49.2604 59.5759 49.2498C59.5379 49.2397 59.5151 49.2013 59.5234 49.1634V49.1623C59.9242 47.3945 60.2296 45.6083 60.4462 43.8112C60.6681 42.0144 60.7847 40.2062 60.8545 38.398C60.9232 36.589 60.919 34.7777 60.8738 32.9675C60.828 31.1571 60.7069 29.3495 60.576 27.5429C60.2985 23.9301 59.8277 20.3332 59.2591 16.753C58.9708 14.9632 58.6465 13.1789 58.2903 11.4011C58.1137 10.5119 57.9292 9.6241 57.7332 8.73852L57.4293 7.41307L57.2705 6.75202L57.1876 6.42275C57.1585 6.3155 57.1292 6.19934 57.1002 6.10657L57.0952 6.09097C57.0832 6.05281 57.1044 6.01242 57.1426 6.00044C57.1798 5.98874 57.2191 6.00852 57.2322 6.04445L57.2331 6.04501Z" fill="white"/>
<path d="M54.0283 60.4298C66.1806 48.3009 66.1806 28.6361 54.0283 16.5072C41.876 4.37836 22.1732 4.37836 10.0209 16.5072C-2.1314 28.6361 -2.1314 48.3009 10.0209 60.4298C22.1732 72.5587 41.876 72.5587 54.0283 60.4298Z" fill="#4D61FC"/>
<path d="M56.1128 60.4295C68.2651 48.3007 68.2651 28.6359 56.1128 16.507C43.9606 4.37812 24.2578 4.37812 12.1055 16.507C-0.0468118 28.6359 -0.0468091 48.3007 12.1055 60.4295C24.2578 72.5584 43.9605 72.5584 56.1128 60.4295Z" fill="white"/>
<path d="M34.1091 64.9752C48.7766 64.9752 60.667 53.1077 60.667 38.4685C60.667 23.8293 48.7766 11.9619 34.1091 11.9619C19.4417 11.9619 7.55133 23.8293 7.55133 38.4685C7.55133 53.1077 19.4417 64.9752 34.1091 64.9752Z" fill="#4D61FC"/>
<path d="M34.1091 66.3028C18.7316 66.3028 6.22107 53.8164 6.22107 38.4685C6.22107 23.1206 18.7316 10.6339 34.1091 10.6339C49.4866 10.6339 61.9972 23.1203 61.9972 38.4682C61.9972 53.8161 49.4866 66.3025 34.1091 66.3025V66.3028ZM34.1091 11.9616C19.4651 11.9616 7.5513 23.8524 7.5513 38.4682C7.5513 53.084 19.4651 64.9748 34.1091 64.9748C48.7531 64.9748 60.6669 53.084 60.6669 38.4682C60.6669 23.8524 48.7531 11.9616 34.1091 11.9616Z" fill="white"/>
<path d="M45.5578 49.8949C51.8808 43.5841 51.8808 33.3524 45.5578 27.0417C39.2349 20.7309 28.9834 20.7309 22.6605 27.0417C16.3376 33.3524 16.3376 43.5841 22.6605 49.8949C28.9834 56.2056 39.2349 56.2056 45.5578 49.8949Z" fill="#4D61FC"/>
<path d="M34.1091 55.9558C24.448 55.9558 16.588 48.1109 16.588 38.4682C16.588 28.8254 24.448 20.9808 34.1091 20.9808C43.7702 20.9808 51.6302 28.8254 51.6302 38.4682C51.6302 48.1109 43.7702 55.9558 34.1091 55.9558ZM34.1091 23.6362C25.9147 23.6362 19.2482 30.2899 19.2482 38.4682C19.2482 46.6465 25.9147 53.3004 34.1091 53.3004C42.3035 53.3004 48.97 46.6465 48.97 38.4682C48.97 30.2899 42.3035 23.6362 34.1091 23.6362Z" fill="white"/>
<path d="M38.5448 42.8955C40.9945 40.4505 40.9945 36.4863 38.5448 34.0413C36.095 31.5962 32.1232 31.5962 29.6735 34.0413C27.2237 36.4863 27.2237 40.4505 29.6735 42.8955C32.1232 45.3405 36.095 45.3405 38.5448 42.8955Z" fill="url(#paint1_linear_1_1930)"/>
<path d="M34.1091 46.0569C29.9169 46.0569 26.5062 42.6527 26.5062 38.4683C26.5062 34.2839 29.9169 30.8798 34.1091 30.8798C38.3013 30.8798 41.7123 34.2839 41.7123 38.4683C41.7123 42.6527 38.3016 46.0569 34.1091 46.0569ZM34.1091 33.5351C31.3836 33.5351 29.1664 35.7481 29.1664 38.4683C29.1664 41.1886 31.3836 43.4015 34.1091 43.4015C36.8346 43.4015 39.0519 41.1886 39.0519 38.4683C39.0519 35.7481 36.8346 33.5351 34.1091 33.5351Z" fill="white"/>
<path d="M77.4467 47.8037L78.7756 50.4802L73.1409 49.1854C71.2949 48.7611 69.7366 47.5329 68.8954 45.8386L77.4467 47.8037Z" fill="url(#paint2_linear_1_1930)"/>
<path d="M77.6321 46.9994L79.9998 45.1723L74.3651 43.8775C72.5188 43.4532 70.5795 43.8777 69.0807 45.0344L77.6321 46.9994Z" fill="url(#paint3_linear_1_1930)"/>
<path d="M41.183 38.4819L40.9607 39.4459L77.5338 47.8464L77.756 46.8824L41.183 38.4819Z" fill="url(#paint4_linear_1_1930)"/>
<path d="M42.8838 38.0094C43.4378 38.1367 42.8363 40.7438 42.2823 40.6165L33.8685 37.5943C33.5576 37.4826 33.6645 37.0199 33.993 37.055L42.8838 38.0094Z" fill="url(#paint5_linear_1_1930)"/>
<path d="M51.8111 75.6185C51.8111 75.6185 52.2602 76.2645 52.2828 77.1721C52.2881 77.3858 52.1148 77.5624 51.9007 77.5699L48.4436 77.6902C48.2818 77.6958 48.2089 77.4905 48.3381 77.393C48.9762 76.9116 50.2322 76.0105 51.1504 75.6413L51.8114 75.6182L51.8111 75.6185Z" fill="url(#paint6_linear_1_1930)"/>
<path d="M51.897 74.5167L51.8086 75.8433C51.7988 75.9918 51.6707 76.1082 51.5222 76.0957C51.4321 76.0882 51.3235 76.065 51.2037 76.0113C51.0899 75.9603 51.0195 75.843 51.0243 75.7185L51.0843 74.1181L51.8973 74.517L51.897 74.5167Z" fill="url(#paint7_linear_1_1930)"/>
<path d="M71.0713 69.8312C71.0713 69.8312 71.7923 69.5136 72.6893 69.6637C72.9006 69.6991 73.0413 69.9025 73.0081 70.1136L72.4705 73.5242C72.4454 73.6838 72.2293 73.7164 72.1582 73.5713C71.8056 72.8545 71.1576 71.453 70.9686 70.483L71.0713 69.8309V69.8312Z" fill="url(#paint8_linear_1_1930)"/>
<path d="M70.0037 69.5378L71.2918 69.8763C71.4358 69.9142 71.5263 70.0618 71.4858 70.205C71.4612 70.2919 71.418 70.3939 71.3423 70.5011C71.2706 70.6031 71.1416 70.6496 71.0202 70.6215L69.4572 70.2588L70.004 69.5378H70.0037Z" fill="url(#paint9_linear_1_1930)"/>
<path d="M52.3637 42.7017C52.3637 42.7017 52.2479 42.4345 52.2666 42.2763C52.2853 42.1181 52.2898 41.6247 51.9931 41.4163C51.9931 41.4163 51.8323 41.4241 51.8292 41.6041C51.6403 41.4016 51.6308 41.2269 51.4354 41.3512C51.2403 41.4751 50.5057 41.92 50.8724 42.2133C51.2392 42.5067 51.8158 43.0649 51.8158 43.0649L52.3634 42.7017H52.3637Z" fill="url(#paint10_linear_1_1930)"/>
<path d="M58.7291 64.0413C58.7291 64.0413 59.3833 69.2531 61.257 69.452C63.1304 69.6509 70.3057 70.6853 70.3057 70.6853L70.505 69.6111C70.505 69.6111 66.3594 67.1045 63.8879 67.1443C62.6523 65.3141 62.9537 60.2575 62.9537 60.2575L58.7294 64.0411L58.7291 64.0413Z" fill="url(#paint11_linear_1_1930)"/>
<path d="M66.4364 45.8453C66.2159 51.6561 63.1619 52.1692 63.1619 52.1692V59.6009H58.8558C58.8558 59.6009 56.7678 54.5259 56.822 52.8297C53.7163 51.519 52.1444 44.0246 51.8161 43.0649C51.9691 42.9488 52.0514 42.9532 52.3637 42.7017C56.5967 49.4255 57.6294 50.459 57.6294 50.459H60.0211C64.6169 50.047 65.7476 45.6868 65.7476 45.6868L66.4364 45.8451V45.8453Z" fill="url(#paint12_linear_1_1930)"/>
<path d="M63.0274 59.5853C63.0274 59.5853 63.3696 63.2268 56.1828 66.0649C54.4289 69.3273 52.1284 75.409 52.1284 75.409H50.6137C50.6137 75.409 51.65 66.2243 53.4838 64.3941C55.3175 62.5638 57.3179 60.5044 58.8555 59.6026C62.4128 59.2313 63.0274 59.5853 63.0274 59.5853Z" fill="url(#paint13_linear_1_1930)"/>
<path d="M59.9633 47.7505L60.756 50.5367C60.756 50.5367 59.4015 51.2632 58.4001 51.0669L58.1248 48.6107L59.9633 47.7502V47.7505Z" fill="url(#paint14_linear_1_1930)"/>
<path d="M58.3211 45.7272C58.292 45.7598 57.2138 48.4358 57.2138 48.4358L58.7579 49.0177L60.1573 46.6331C60.1573 46.6331 58.8075 45.1818 58.3211 45.7275V45.7272Z" fill="url(#paint15_linear_1_1930)"/>
<path d="M59.5156 46.9468L58.8776 48.2597C58.8695 48.2764 58.8592 48.2917 58.8469 48.3059C58.7707 48.3917 58.4871 48.6673 58.2222 48.3605C57.9819 48.082 57.7584 47.8315 57.5334 47.7652C57.4324 47.7354 57.3255 47.787 57.2861 47.8845C57.1881 48.1277 56.9777 48.6795 56.8683 49.1871C56.846 49.2901 56.9074 49.3924 57.0084 49.4233C57.3121 49.5172 57.9585 49.6969 58.5122 49.7203C58.5873 49.7233 58.6579 49.6863 58.6965 49.6219C58.8851 49.3088 59.4623 48.3589 59.6641 48.119C59.8536 47.8939 60.25 47.9455 60.4147 47.9789C60.4688 47.9898 60.5243 47.9783 60.5696 47.9469C60.7295 47.8357 61.0438 47.5415 60.6977 47.1081C60.6254 47.0173 60.6424 46.8861 60.7353 46.8167C60.9207 46.6783 61.1311 46.4197 60.8911 46.0426C60.6472 45.6592 60.2664 45.6729 60.0275 45.7308C59.931 45.7542 59.8341 45.7035 59.7934 45.6133C59.7702 45.5617 59.7241 45.5197 59.6365 45.5174C59.5184 45.5144 59.4311 45.4057 59.4464 45.2887C59.476 45.0642 59.4272 44.7706 59.0498 44.6048C58.3799 44.311 57.8711 44.9319 57.7718 45.4266C57.6724 45.9214 58.4171 46.1988 58.8712 46.2158C59.2167 46.2286 59.4327 46.5961 59.5165 46.7716C59.543 46.827 59.5422 46.8916 59.5154 46.9468H59.5156Z" fill="url(#paint16_linear_1_1930)"/>
<path d="M59.4272 48.5946C59.4272 48.5946 59.6373 47.7399 60.0035 47.7382C60.3697 47.7366 60.6882 48.0725 60.2737 48.5188C59.7582 49.074 59.4272 48.5946 59.4272 48.5946Z" fill="url(#paint17_linear_1_1930)"/>
<path d="M66.5807 44.3123C66.5807 44.3123 65.6507 43.9012 65.7702 44.5909C65.8896 45.2807 65.6401 45.7846 66.1701 45.8375C66.7002 45.8905 66.7607 44.789 66.5807 44.3123Z" fill="url(#paint18_linear_1_1930)"/>
</g>
<defs>
<linearGradient id="paint0_linear_1_1930" x1="87.9012" y1="101.021" x2="18.5247" y2="14.6938" gradientUnits="userSpaceOnUse">
<stop stop-color="#DAE3FE"/>
<stop offset="1" stop-color="#E9EFFD"/>
</linearGradient>
<linearGradient id="paint1_linear_1_1930" x1="77.136" y1="-53.1854" x2="20.8784" y2="67.1146" gradientUnits="userSpaceOnUse">
<stop stop-color="#FF928E"/>
<stop offset="1" stop-color="#FE7062"/>
</linearGradient>
<linearGradient id="paint2_linear_1_1930" x1="72.4673" y1="47.5871" x2="100.644" y2="56.9214" gradientUnits="userSpaceOnUse">
<stop stop-color="#4F52FF"/>
<stop offset="1" stop-color="#4042E2"/>
</linearGradient>
<linearGradient id="paint3_linear_1_1930" x1="73.055" y1="45.041" x2="102.477" y2="48.9974" gradientUnits="userSpaceOnUse">
<stop stop-color="#4F52FF"/>
<stop offset="1" stop-color="#4042E2"/>
</linearGradient>
<linearGradient id="paint4_linear_1_1930" x1="32.1621" y1="29.4468" x2="61.7494" y2="44.4142" gradientUnits="userSpaceOnUse">
<stop stop-color="#09005D"/>
<stop offset="1" stop-color="#1A0F91"/>
</linearGradient>
<linearGradient id="paint5_linear_1_1930" x1="37.2434" y1="37.56" x2="62.0165" y2="45.7666" gradientUnits="userSpaceOnUse">
<stop stop-color="#09005D"/>
<stop offset="1" stop-color="#1A0F91"/>
</linearGradient>
<linearGradient id="paint6_linear_1_1930" x1="52.2625" y1="76.5794" x2="48.2438" y2="76.72" gradientUnits="userSpaceOnUse">
<stop stop-color="#09005D"/>
<stop offset="1" stop-color="#1A0F91"/>
</linearGradient>
<linearGradient id="paint7_linear_1_1930" x1="51.9686" y1="75.0196" x2="50.9448" y2="75.1607" gradientUnits="userSpaceOnUse">
<stop stop-color="#FEBBBA"/>
<stop offset="1" stop-color="#FF928E"/>
</linearGradient>
<linearGradient id="paint8_linear_1_1930" x1="72.102" y1="69.5775" x2="71.4802" y2="73.5426" gradientUnits="userSpaceOnUse">
<stop stop-color="#09005D"/>
<stop offset="1" stop-color="#1A0F91"/>
</linearGradient>
<linearGradient id="paint9_linear_1_1930" x1="70.511" y1="69.5598" x2="70.4551" y2="70.5901" gradientUnits="userSpaceOnUse">
<stop stop-color="#FEBBBA"/>
<stop offset="1" stop-color="#FF928E"/>
</linearGradient>
<linearGradient id="paint10_linear_1_1930" x1="50.8071" y1="41.8797" x2="52.4548" y2="42.423" gradientUnits="userSpaceOnUse">
<stop stop-color="#FEBBBA"/>
<stop offset="1" stop-color="#FF928E"/>
</linearGradient>
<linearGradient id="paint11_linear_1_1930" x1="62.9021" y1="64.4857" x2="70.5323" y2="79.2447" gradientUnits="userSpaceOnUse">
<stop stop-color="#09005D"/>
<stop offset="1" stop-color="#1A0F91"/>
</linearGradient>
<linearGradient id="paint12_linear_1_1930" x1="42.2667" y1="70.1209" x2="54.8357" y2="54.5479" gradientUnits="userSpaceOnUse">
<stop stop-color="#FF928E"/>
<stop offset="1" stop-color="#FE7062"/>
</linearGradient>
<linearGradient id="paint13_linear_1_1930" x1="52.1848" y1="66.5432" x2="61.2916" y2="68.4046" gradientUnits="userSpaceOnUse">
<stop stop-color="#09005D"/>
<stop offset="1" stop-color="#1A0F91"/>
</linearGradient>
<linearGradient id="paint14_linear_1_1930" x1="56.7299" y1="43.3915" x2="62.6206" y2="57.9065" gradientUnits="userSpaceOnUse">
<stop stop-color="#FEBBBA"/>
<stop offset="1" stop-color="#FF928E"/>
</linearGradient>
<linearGradient id="paint15_linear_1_1930" x1="58.7973" y1="46.1757" x2="58.3614" y2="51.6454" gradientUnits="userSpaceOnUse">
<stop stop-color="#FEBBBA"/>
<stop offset="1" stop-color="#FF928E"/>
</linearGradient>
<linearGradient id="paint16_linear_1_1930" x1="59.9859" y1="48.6441" x2="57.032" y2="46.0118" gradientUnits="userSpaceOnUse">
<stop stop-color="#09005D"/>
<stop offset="1" stop-color="#1A0F91"/>
</linearGradient>
<linearGradient id="paint17_linear_1_1930" x1="60.1173" y1="51.9863" x2="59.944" y2="48.188" gradientUnits="userSpaceOnUse">
<stop stop-color="#FEBBBA"/>
<stop offset="1" stop-color="#FF928E"/>
</linearGradient>
<linearGradient id="paint18_linear_1_1930" x1="65.6613" y1="44.9138" x2="66.6735" y2="45.1204" gradientUnits="userSpaceOnUse">
<stop stop-color="#FEBBBA"/>
<stop offset="1" stop-color="#FF928E"/>
</linearGradient>
<clipPath id="clip0_1_1930">
<rect width="80" height="78" fill="white"/>
</clipPath>
</defs>
</svg>
