<svg width="1440" height="555" viewBox="0 0 1440 555" fill="none" xmlns="http://www.w3.org/2000/svg">
<mask id="mask0_1_1614" style="mask-type:alpha" maskUnits="userSpaceOnUse" x="0" y="-34" width="1440" height="589">
<rect y="-33.7322" width="1440" height="588" fill="#605BFF"/>
</mask>
<g mask="url(#mask0_1_1614)">
<ellipse cx="3.69383" cy="4.07779" rx="4.53221" ry="4.07779" fill="#FDFDFF" fill-opacity="0.06"/>
<ellipse cx="21.8232" cy="4.07779" rx="4.53221" ry="4.07779" fill="#FDFDFF" fill-opacity="0.06"/>
<ellipse cx="39.9531" cy="4.07779" rx="4.53221" ry="4.07779" fill="#FDFDFF" fill-opacity="0.06"/>
<ellipse cx="58.0803" cy="4.07779" rx="4.53221" ry="4.07779" fill="#FDFDFF" fill-opacity="0.06"/>
<ellipse cx="76.2099" cy="4.07779" rx="4.53221" ry="4.07779" fill="#FDFDFF" fill-opacity="0.06"/>
<ellipse cx="94.3393" cy="4.07779" rx="4.53221" ry="4.07779" fill="#FDFDFF" fill-opacity="0.06"/>
<ellipse cx="112.468" cy="4.07779" rx="4.53221" ry="4.07779" fill="#FDFDFF" fill-opacity="0.06"/>
<ellipse cx="3.69383" cy="20.3895" rx="4.53221" ry="4.07779" fill="#FDFDFF" fill-opacity="0.06"/>
<ellipse cx="21.8232" cy="20.3895" rx="4.53221" ry="4.07779" fill="#FDFDFF" fill-opacity="0.06"/>
<ellipse cx="39.9531" cy="20.3895" rx="4.53221" ry="4.07779" fill="#FDFDFF" fill-opacity="0.06"/>
<ellipse cx="58.0803" cy="20.3895" rx="4.53221" ry="4.07779" fill="#FDFDFF" fill-opacity="0.06"/>
<ellipse cx="76.2099" cy="20.3895" rx="4.53221" ry="4.07779" fill="#FDFDFF" fill-opacity="0.06"/>
<ellipse cx="94.3393" cy="20.3895" rx="4.53221" ry="4.07779" fill="#FDFDFF" fill-opacity="0.06"/>
<ellipse cx="112.468" cy="20.3895" rx="4.53221" ry="4.07779" fill="#FDFDFF" fill-opacity="0.06"/>
<ellipse cx="3.69383" cy="36.7003" rx="4.53221" ry="4.07779" fill="#FDFDFF" fill-opacity="0.06"/>
<ellipse cx="21.8232" cy="36.7003" rx="4.53221" ry="4.07779" fill="#FDFDFF" fill-opacity="0.06"/>
<ellipse cx="39.9531" cy="36.7003" rx="4.53221" ry="4.07779" fill="#FDFDFF" fill-opacity="0.06"/>
<ellipse cx="58.0803" cy="36.7003" rx="4.53221" ry="4.07779" fill="#FDFDFF" fill-opacity="0.06"/>
<ellipse cx="76.2099" cy="36.7003" rx="4.53221" ry="4.07779" fill="#FDFDFF" fill-opacity="0.06"/>
<ellipse cx="94.3393" cy="36.7003" rx="4.53221" ry="4.07779" fill="#FDFDFF" fill-opacity="0.06"/>
<ellipse cx="112.468" cy="36.7003" rx="4.53221" ry="4.07779" fill="#FDFDFF" fill-opacity="0.06"/>
<ellipse cx="3.69383" cy="53.0114" rx="4.53221" ry="4.07779" fill="#FDFDFF" fill-opacity="0.06"/>
<ellipse cx="21.8232" cy="53.0114" rx="4.53221" ry="4.07779" fill="#FDFDFF" fill-opacity="0.06"/>
<ellipse cx="39.9531" cy="53.0114" rx="4.53221" ry="4.07779" fill="#FDFDFF" fill-opacity="0.06"/>
<ellipse cx="58.0803" cy="53.0114" rx="4.53221" ry="4.07779" fill="#FDFDFF" fill-opacity="0.06"/>
<ellipse cx="76.2099" cy="53.0114" rx="4.53221" ry="4.07779" fill="#FDFDFF" fill-opacity="0.06"/>
<ellipse cx="94.3393" cy="53.0114" rx="4.53221" ry="4.07779" fill="#FDFDFF" fill-opacity="0.06"/>
<ellipse cx="112.468" cy="53.0114" rx="4.53221" ry="4.07779" fill="#FDFDFF" fill-opacity="0.06"/>
<ellipse cx="3.69383" cy="69.323" rx="4.53221" ry="4.07779" fill="#FDFDFF" fill-opacity="0.06"/>
<ellipse cx="21.8232" cy="69.323" rx="4.53221" ry="4.07779" fill="#FDFDFF" fill-opacity="0.06"/>
<ellipse cx="39.9531" cy="69.323" rx="4.53221" ry="4.07779" fill="#FDFDFF" fill-opacity="0.06"/>
<ellipse cx="58.0803" cy="69.323" rx="4.53221" ry="4.07779" fill="#FDFDFF" fill-opacity="0.06"/>
<ellipse cx="76.2099" cy="69.323" rx="4.53221" ry="4.07779" fill="#FDFDFF" fill-opacity="0.06"/>
<ellipse cx="94.3393" cy="69.323" rx="4.53221" ry="4.07779" fill="#FDFDFF" fill-opacity="0.06"/>
<ellipse cx="112.468" cy="69.323" rx="4.53221" ry="4.07779" fill="#FDFDFF" fill-opacity="0.06"/>
<ellipse cx="3.69383" cy="85.6339" rx="4.53221" ry="4.07779" fill="#FDFDFF" fill-opacity="0.06"/>
<ellipse cx="21.8232" cy="85.6339" rx="4.53221" ry="4.07779" fill="#FDFDFF" fill-opacity="0.06"/>
<ellipse cx="39.9531" cy="85.6339" rx="4.53221" ry="4.07779" fill="#FDFDFF" fill-opacity="0.06"/>
<ellipse cx="58.0803" cy="85.6339" rx="4.53221" ry="4.07779" fill="#FDFDFF" fill-opacity="0.06"/>
<ellipse cx="76.2099" cy="85.6339" rx="4.53221" ry="4.07779" fill="#FDFDFF" fill-opacity="0.06"/>
<ellipse cx="94.3393" cy="85.6339" rx="4.53221" ry="4.07779" fill="#FDFDFF" fill-opacity="0.06"/>
<ellipse cx="112.468" cy="85.6339" rx="4.53221" ry="4.07779" fill="#FDFDFF" fill-opacity="0.06"/>
<ellipse cx="3.69383" cy="101.946" rx="4.53221" ry="4.07779" fill="#FDFDFF" fill-opacity="0.06"/>
<ellipse cx="21.8232" cy="101.946" rx="4.53221" ry="4.07779" fill="#FDFDFF" fill-opacity="0.06"/>
<ellipse cx="39.9531" cy="101.946" rx="4.53221" ry="4.07779" fill="#FDFDFF" fill-opacity="0.06"/>
<ellipse cx="58.0803" cy="101.946" rx="4.53221" ry="4.07779" fill="#FDFDFF" fill-opacity="0.06"/>
<ellipse cx="76.2099" cy="101.946" rx="4.53221" ry="4.07779" fill="#FDFDFF" fill-opacity="0.06"/>
<ellipse cx="94.3393" cy="101.946" rx="4.53221" ry="4.07779" fill="#FDFDFF" fill-opacity="0.06"/>
<ellipse cx="112.468" cy="101.946" rx="4.53221" ry="4.07779" fill="#FDFDFF" fill-opacity="0.06"/>
<ellipse cx="3.69383" cy="118.256" rx="4.53221" ry="4.07779" fill="#FDFDFF" fill-opacity="0.06"/>
<ellipse cx="21.8232" cy="118.256" rx="4.53221" ry="4.07779" fill="#FDFDFF" fill-opacity="0.06"/>
<ellipse cx="39.9531" cy="118.256" rx="4.53221" ry="4.07779" fill="#FDFDFF" fill-opacity="0.06"/>
<ellipse cx="58.0803" cy="118.256" rx="4.53221" ry="4.07779" fill="#FDFDFF" fill-opacity="0.06"/>
<ellipse cx="76.2099" cy="118.256" rx="4.53221" ry="4.07779" fill="#FDFDFF" fill-opacity="0.06"/>
<ellipse cx="94.3393" cy="118.256" rx="4.53221" ry="4.07779" fill="#FDFDFF" fill-opacity="0.06"/>
<ellipse cx="112.468" cy="118.256" rx="4.53221" ry="4.07779" fill="#FDFDFF" fill-opacity="0.06"/>
<ellipse cx="3.69383" cy="134.568" rx="4.53221" ry="4.07779" fill="#FDFDFF" fill-opacity="0.06"/>
<ellipse cx="21.8232" cy="134.568" rx="4.53221" ry="4.07779" fill="#FDFDFF" fill-opacity="0.06"/>
<ellipse cx="39.9531" cy="134.568" rx="4.53221" ry="4.07779" fill="#FDFDFF" fill-opacity="0.06"/>
<ellipse cx="58.0803" cy="134.568" rx="4.53221" ry="4.07779" fill="#FDFDFF" fill-opacity="0.06"/>
<ellipse cx="76.2099" cy="134.568" rx="4.53221" ry="4.07779" fill="#FDFDFF" fill-opacity="0.06"/>
<ellipse cx="94.3393" cy="134.568" rx="4.53221" ry="4.07779" fill="#FDFDFF" fill-opacity="0.06"/>
<ellipse cx="112.468" cy="134.568" rx="4.53221" ry="4.07779" fill="#FDFDFF" fill-opacity="0.06"/>
<ellipse cx="3.69383" cy="150.879" rx="4.53221" ry="4.07779" fill="#FDFDFF" fill-opacity="0.06"/>
<ellipse cx="21.8232" cy="150.879" rx="4.53221" ry="4.07779" fill="#FDFDFF" fill-opacity="0.06"/>
<ellipse cx="39.9531" cy="150.879" rx="4.53221" ry="4.07779" fill="#FDFDFF" fill-opacity="0.06"/>
<ellipse cx="58.0803" cy="150.879" rx="4.53221" ry="4.07779" fill="#FDFDFF" fill-opacity="0.06"/>
<ellipse cx="76.2099" cy="150.879" rx="4.53221" ry="4.07779" fill="#FDFDFF" fill-opacity="0.06"/>
<ellipse cx="94.3393" cy="150.879" rx="4.53221" ry="4.07779" fill="#FDFDFF" fill-opacity="0.06"/>
<ellipse cx="112.468" cy="150.879" rx="4.53221" ry="4.07779" fill="#FDFDFF" fill-opacity="0.06"/>
<ellipse cx="3.69383" cy="167.19" rx="4.53221" ry="4.07779" fill="#FDFDFF" fill-opacity="0.06"/>
<ellipse cx="21.8232" cy="167.19" rx="4.53221" ry="4.07779" fill="#FDFDFF" fill-opacity="0.06"/>
<ellipse cx="39.9531" cy="167.19" rx="4.53221" ry="4.07779" fill="#FDFDFF" fill-opacity="0.06"/>
<ellipse cx="58.0803" cy="167.19" rx="4.53221" ry="4.07779" fill="#FDFDFF" fill-opacity="0.06"/>
<ellipse cx="76.2099" cy="167.19" rx="4.53221" ry="4.07779" fill="#FDFDFF" fill-opacity="0.06"/>
<ellipse cx="94.3393" cy="167.19" rx="4.53221" ry="4.07779" fill="#FDFDFF" fill-opacity="0.06"/>
<ellipse cx="112.468" cy="167.19" rx="4.53221" ry="4.07779" fill="#FDFDFF" fill-opacity="0.06"/>
<g opacity="0.3">
<path d="M1338.58 540.997C1338.58 543.621 1336.78 545.84 1334.65 545.84C1332.51 545.84 1330.71 543.621 1330.71 540.997C1330.71 538.374 1332.51 536.154 1334.65 536.154C1336.78 536.154 1338.58 538.374 1338.58 540.997Z" fill="white" fill-opacity="0.4"/>
<path d="M1363.35 540.997C1363.35 543.621 1361.55 545.84 1359.42 545.84C1357.28 545.84 1355.48 543.621 1355.48 540.997C1355.48 538.374 1357.28 536.154 1359.42 536.154C1361.55 536.154 1363.35 538.374 1363.35 540.997Z" fill="white" fill-opacity="0.4"/>
<path d="M1388.13 540.997C1388.13 543.621 1386.32 545.84 1384.19 545.84C1382.06 545.84 1380.25 543.621 1380.25 540.997C1380.25 538.374 1382.06 536.154 1384.19 536.154C1386.32 536.154 1388.13 538.374 1388.13 540.997Z" fill="white" fill-opacity="0.4"/>
<path d="M1412.9 540.997C1412.9 543.621 1411.09 545.84 1408.96 545.84C1406.83 545.84 1405.02 543.621 1405.02 540.997C1405.02 538.374 1406.83 536.154 1408.96 536.154C1411.09 536.154 1412.9 538.374 1412.9 540.997Z" fill="white" fill-opacity="0.4"/>
</g>
</g>
</svg>
