<svg width="70" height="87" viewBox="0 0 70 87" fill="none" xmlns="http://www.w3.org/2000/svg">
<circle cx="2.05882" cy="2.05882" r="2.05882" fill="#3C8CD5" fill-opacity="0.11"/>
<circle cx="10.2945" cy="2.05882" r="2.05882" fill="#3C8CD5" fill-opacity="0.11"/>
<circle cx="18.5291" cy="2.05882" r="2.05882" fill="#3C8CD5" fill-opacity="0.11"/>
<circle cx="26.7647" cy="2.05882" r="2.05882" fill="#3C8CD5" fill-opacity="0.11"/>
<circle cx="35.0003" cy="2.05882" r="2.05882" fill="#3C8CD5" fill-opacity="0.11"/>
<circle cx="43.2349" cy="2.05882" r="2.05882" fill="#3C8CD5" fill-opacity="0.11"/>
<circle cx="51.4705" cy="2.05882" r="2.05882" fill="#3C8CD5" fill-opacity="0.11"/>
<circle cx="59.7061" cy="2.05882" r="2.05882" fill="#3C8CD5" fill-opacity="0.11"/>
<circle cx="67.9412" cy="2.05882" r="2.05882" fill="#3C8CD5" fill-opacity="0.11"/>
<circle cx="2.05888" cy="10.2944" r="2.05882" fill="#3C8CD5" fill-opacity="0.11"/>
<circle cx="10.2945" cy="10.2944" r="2.05882" fill="#3C8CD5" fill-opacity="0.11"/>
<circle cx="18.5291" cy="10.2944" r="2.05882" fill="#3C8CD5" fill-opacity="0.11"/>
<circle cx="26.7647" cy="10.2944" r="2.05882" fill="#3C8CD5" fill-opacity="0.11"/>
<circle cx="35.0003" cy="10.2944" r="2.05882" fill="#3C8CD5" fill-opacity="0.11"/>
<circle cx="43.2349" cy="10.2944" r="2.05882" fill="#3C8CD5" fill-opacity="0.11"/>
<circle cx="51.4705" cy="10.2944" r="2.05882" fill="#3C8CD5" fill-opacity="0.11"/>
<circle cx="59.7061" cy="10.2944" r="2.05882" fill="#3C8CD5" fill-opacity="0.11"/>
<circle cx="67.9412" cy="10.2944" r="2.05882" fill="#3C8CD5" fill-opacity="0.11"/>
<circle cx="2.05888" cy="18.5294" r="2.05882" fill="#3C8CD5" fill-opacity="0.11"/>
<circle cx="10.2945" cy="18.5294" r="2.05882" fill="#3C8CD5" fill-opacity="0.11"/>
<circle cx="18.5291" cy="18.5294" r="2.05882" fill="#3C8CD5" fill-opacity="0.11"/>
<circle cx="26.7647" cy="18.5294" r="2.05882" fill="#3C8CD5" fill-opacity="0.11"/>
<circle cx="35.0003" cy="18.5294" r="2.05882" fill="#3C8CD5" fill-opacity="0.11"/>
<circle cx="43.2349" cy="18.5294" r="2.05882" fill="#3C8CD5" fill-opacity="0.11"/>
<circle cx="51.4705" cy="18.5294" r="2.05882" fill="#3C8CD5" fill-opacity="0.11"/>
<circle cx="59.7061" cy="18.5294" r="2.05882" fill="#3C8CD5" fill-opacity="0.11"/>
<circle cx="67.9412" cy="18.5294" r="2.05882" fill="#3C8CD5" fill-opacity="0.11"/>
<circle cx="2.05888" cy="26.7646" r="2.05882" fill="#3C8CD5" fill-opacity="0.11"/>
<circle cx="10.2945" cy="26.7646" r="2.05882" fill="#3C8CD5" fill-opacity="0.11"/>
<circle cx="18.5291" cy="26.7646" r="2.05882" fill="#3C8CD5" fill-opacity="0.11"/>
<circle cx="26.7647" cy="26.7646" r="2.05882" fill="#3C8CD5" fill-opacity="0.11"/>
<circle cx="35.0003" cy="26.7646" r="2.05882" fill="#3C8CD5" fill-opacity="0.11"/>
<circle cx="43.2349" cy="26.7646" r="2.05882" fill="#3C8CD5" fill-opacity="0.11"/>
<circle cx="51.4705" cy="26.7646" r="2.05882" fill="#3C8CD5" fill-opacity="0.11"/>
<circle cx="59.7061" cy="26.7646" r="2.05882" fill="#3C8CD5" fill-opacity="0.11"/>
<circle cx="67.9412" cy="26.7646" r="2.05882" fill="#3C8CD5" fill-opacity="0.11"/>
<circle cx="2.05888" cy="35.0002" r="2.05882" fill="#3C8CD5" fill-opacity="0.11"/>
<circle cx="10.2945" cy="35.0002" r="2.05882" fill="#3C8CD5" fill-opacity="0.11"/>
<circle cx="18.5291" cy="35.0002" r="2.05882" fill="#3C8CD5" fill-opacity="0.11"/>
<circle cx="26.7647" cy="35.0002" r="2.05882" fill="#3C8CD5" fill-opacity="0.11"/>
<circle cx="35.0003" cy="35.0002" r="2.05882" fill="#3C8CD5" fill-opacity="0.11"/>
<circle cx="43.2349" cy="35.0002" r="2.05882" fill="#3C8CD5" fill-opacity="0.11"/>
<circle cx="51.4705" cy="35.0002" r="2.05882" fill="#3C8CD5" fill-opacity="0.11"/>
<circle cx="59.7061" cy="35.0002" r="2.05882" fill="#3C8CD5" fill-opacity="0.11"/>
<circle cx="67.9412" cy="35.0002" r="2.05882" fill="#3C8CD5" fill-opacity="0.11"/>
<circle cx="2.05888" cy="43.2353" r="2.05882" fill="#3C8CD5" fill-opacity="0.11"/>
<circle cx="10.2945" cy="43.2353" r="2.05882" fill="#3C8CD5" fill-opacity="0.11"/>
<circle cx="18.5291" cy="43.2353" r="2.05882" fill="#3C8CD5" fill-opacity="0.11"/>
<circle cx="26.7647" cy="43.2353" r="2.05882" fill="#3C8CD5" fill-opacity="0.11"/>
<circle cx="35.0003" cy="43.2353" r="2.05882" fill="#3C8CD5" fill-opacity="0.11"/>
<circle cx="43.2349" cy="43.2353" r="2.05882" fill="#3C8CD5" fill-opacity="0.11"/>
<circle cx="51.4705" cy="43.2353" r="2.05882" fill="#3C8CD5" fill-opacity="0.11"/>
<circle cx="59.7061" cy="43.2353" r="2.05882" fill="#3C8CD5" fill-opacity="0.11"/>
<circle cx="67.9412" cy="43.2353" r="2.05882" fill="#3C8CD5" fill-opacity="0.11"/>
<circle cx="2.05888" cy="51.4709" r="2.05882" fill="#3C8CD5" fill-opacity="0.11"/>
<circle cx="10.2945" cy="51.4709" r="2.05882" fill="#3C8CD5" fill-opacity="0.11"/>
<circle cx="18.5291" cy="51.4709" r="2.05882" fill="#3C8CD5" fill-opacity="0.11"/>
<circle cx="26.7647" cy="51.4709" r="2.05882" fill="#3C8CD5" fill-opacity="0.11"/>
<circle cx="35.0003" cy="51.4709" r="2.05882" fill="#3C8CD5" fill-opacity="0.11"/>
<circle cx="43.2349" cy="51.4709" r="2.05882" fill="#3C8CD5" fill-opacity="0.11"/>
<circle cx="51.4705" cy="51.4709" r="2.05882" fill="#3C8CD5" fill-opacity="0.11"/>
<circle cx="59.7061" cy="51.4709" r="2.05882" fill="#3C8CD5" fill-opacity="0.11"/>
<circle cx="67.9412" cy="51.4709" r="2.05882" fill="#3C8CD5" fill-opacity="0.11"/>
<circle cx="2.05888" cy="59.706" r="2.05882" fill="#3C8CD5" fill-opacity="0.11"/>
<circle cx="10.2945" cy="59.706" r="2.05882" fill="#3C8CD5" fill-opacity="0.11"/>
<circle cx="18.5291" cy="59.706" r="2.05882" fill="#3C8CD5" fill-opacity="0.11"/>
<circle cx="26.7647" cy="59.706" r="2.05882" fill="#3C8CD5" fill-opacity="0.11"/>
<circle cx="35.0003" cy="59.706" r="2.05882" fill="#3C8CD5" fill-opacity="0.11"/>
<circle cx="43.2349" cy="59.706" r="2.05882" fill="#3C8CD5" fill-opacity="0.11"/>
<circle cx="51.4705" cy="59.706" r="2.05882" fill="#3C8CD5" fill-opacity="0.11"/>
<circle cx="59.7061" cy="59.706" r="2.05882" fill="#3C8CD5" fill-opacity="0.11"/>
<circle cx="67.9412" cy="59.706" r="2.05882" fill="#3C8CD5" fill-opacity="0.11"/>
<circle cx="2.05888" cy="67.9411" r="2.05882" fill="#3C8CD5" fill-opacity="0.11"/>
<circle cx="10.2945" cy="67.9411" r="2.05882" fill="#3C8CD5" fill-opacity="0.11"/>
<circle cx="18.5291" cy="67.9411" r="2.05882" fill="#3C8CD5" fill-opacity="0.11"/>
<circle cx="26.7647" cy="67.9411" r="2.05882" fill="#3C8CD5" fill-opacity="0.11"/>
<circle cx="35.0003" cy="67.9411" r="2.05882" fill="#3C8CD5" fill-opacity="0.11"/>
<circle cx="43.2349" cy="67.9411" r="2.05882" fill="#3C8CD5" fill-opacity="0.11"/>
<circle cx="51.4705" cy="67.9411" r="2.05882" fill="#3C8CD5" fill-opacity="0.11"/>
<circle cx="59.7061" cy="67.9411" r="2.05882" fill="#3C8CD5" fill-opacity="0.11"/>
<circle cx="67.9412" cy="67.9411" r="2.05882" fill="#3C8CD5" fill-opacity="0.11"/>
<circle cx="2.05888" cy="76.1767" r="2.05882" fill="#3C8CD5" fill-opacity="0.11"/>
<circle cx="10.2945" cy="76.1767" r="2.05882" fill="#3C8CD5" fill-opacity="0.11"/>
<circle cx="18.5291" cy="76.1767" r="2.05882" fill="#3C8CD5" fill-opacity="0.11"/>
<circle cx="26.7647" cy="76.1767" r="2.05882" fill="#3C8CD5" fill-opacity="0.11"/>
<circle cx="35.0003" cy="76.1767" r="2.05882" fill="#3C8CD5" fill-opacity="0.11"/>
<circle cx="43.2349" cy="76.1767" r="2.05882" fill="#3C8CD5" fill-opacity="0.11"/>
<circle cx="51.4705" cy="76.1767" r="2.05882" fill="#3C8CD5" fill-opacity="0.11"/>
<circle cx="59.7061" cy="76.1767" r="2.05882" fill="#3C8CD5" fill-opacity="0.11"/>
<circle cx="67.9412" cy="76.1767" r="2.05882" fill="#3C8CD5" fill-opacity="0.11"/>
<circle cx="2.05888" cy="84.4118" r="2.05882" fill="#3C8CD5" fill-opacity="0.11"/>
<circle cx="10.2945" cy="84.4118" r="2.05882" fill="#3C8CD5" fill-opacity="0.11"/>
<circle cx="18.5291" cy="84.4118" r="2.05882" fill="#3C8CD5" fill-opacity="0.11"/>
<circle cx="26.7647" cy="84.4118" r="2.05882" fill="#3C8CD5" fill-opacity="0.11"/>
<circle cx="35.0003" cy="84.4118" r="2.05882" fill="#3C8CD5" fill-opacity="0.11"/>
<circle cx="43.2349" cy="84.4118" r="2.05882" fill="#3C8CD5" fill-opacity="0.11"/>
<circle cx="51.4705" cy="84.4118" r="2.05882" fill="#3C8CD5" fill-opacity="0.11"/>
<circle cx="59.7061" cy="84.4118" r="2.05882" fill="#3C8CD5" fill-opacity="0.11"/>
<circle cx="67.9412" cy="84.4118" r="2.05882" fill="#3C8CD5" fill-opacity="0.11"/>
</svg>
