<svg width="40" height="40" viewBox="0 0 40 40" fill="none" xmlns="http://www.w3.org/2000/svg">
<path fill-rule="evenodd" clip-rule="evenodd" d="M15.6667 8C15.6667 7.44772 16.1144 7 16.6667 7H23.3333C23.8856 7 24.3333 7.44772 24.3333 8C24.3333 8.55228 23.8856 9 23.3333 9H16.6667C16.1144 9 15.6667 8.55228 15.6667 8ZM9 21.76C9 15.5748 13.9026 10.52 20 10.52C26.0974 10.52 31 15.5748 31 21.76C31 27.9452 26.0974 33 20 33C13.9026 33 9 27.9452 9 21.76ZM20 14.5241C20.5523 14.5241 21 14.9718 21 15.5241V21.0028C21 21.1867 21.0819 21.3536 21.2111 21.4594L24.4799 24.1372C24.9071 24.4872 24.9697 25.1172 24.6197 25.5445C24.2697 25.9717 23.6397 26.0343 23.2124 25.6843L19.9437 23.0066C19.343 22.5145 19 21.7761 19 21.0028V15.5241C19 14.9718 19.4477 14.5241 20 14.5241Z" fill="#293FCC"/>
</svg>
