<svg width="56" height="56" viewBox="0 0 56 56" fill="none" xmlns="http://www.w3.org/2000/svg">
<path fill-rule="evenodd" clip-rule="evenodd" d="M16.8 12.6C16.8 11.0536 18.0536 9.79999 19.6 9.79999H25.216C26.6659 9.79999 28.0594 10.3624 29.1031 11.3689L31.0182 13.2156C31.5401 13.7188 32.2368 14 32.9618 14H36.4C37.9464 14 39.2 15.2536 39.2 16.8V28.7C39.2 30.2464 37.9464 31.5 36.4 31.5H32.9618C31.5118 31.5 30.1184 30.9376 29.0746 29.9311L27.1595 28.0844C26.6377 27.5812 25.9409 27.3 25.216 27.3H19.6V44.8C19.6 45.5732 18.9732 46.2 18.2 46.2C17.4268 46.2 16.8 45.5732 16.8 44.8V12.6Z" fill="#FF3879"/>
</svg>
