<svg width="72" height="12" viewBox="0 0 72 12" fill="none" xmlns="http://www.w3.org/2000/svg">
<g clip-path="url(#clip0_1_2334)">
<path d="M5.68425 8.6495L2.34335 10.5196L3.0894 6.76424L0.278081 4.16466L4.08035 3.71371L5.68425 0.236861L7.28814 3.71371L11.0904 4.16466L8.27909 6.76424L9.02515 10.5196L5.68425 8.6495Z" fill="#FFCB4B"/>
</g>
<g clip-path="url(#clip1_1_2334)">
<path d="M20.842 8.6495L17.5011 10.5196L18.2472 6.76424L15.4359 4.16466L19.2381 3.71371L20.842 0.236861L22.4459 3.71371L26.2482 4.16466L23.4369 6.76424L24.1829 10.5196L20.842 8.6495Z" fill="#FFCB4B"/>
</g>
<path d="M35.9999 8.6495L32.659 10.5196L33.4051 6.76424L30.5938 4.16466L34.396 3.71371L35.9999 0.236861L37.6038 3.71371L41.4061 4.16466L38.5948 6.76424L39.3408 10.5196L35.9999 8.6495Z" fill="#FFCB4B"/>
<path d="M51.1579 8.6495L47.817 10.5196L48.5631 6.76424L45.7517 4.16466L49.554 3.71371L51.1579 0.236861L52.7618 3.71371L56.5641 4.16466L53.7527 6.76424L54.4988 10.5196L51.1579 8.6495Z" fill="#FFCB4B"/>
<path d="M66.3158 8.6495L62.9749 10.5196L63.721 6.76424L60.9096 4.16466L64.7119 3.71371L66.3158 0.236861L67.9197 3.71371L71.722 4.16466L68.9106 6.76424L69.6567 10.5196L66.3158 8.6495Z" fill="#FFCB4B"/>
<defs>
<clipPath id="clip0_1_2334">
<rect width="11.2111" height="11.2111" fill="white" transform="scale(1.01404)"/>
</clipPath>
<clipPath id="clip1_1_2334">
<rect width="11.2111" height="11.2111" fill="white" transform="translate(15.1578) scale(1.01404)"/>
</clipPath>
</defs>
</svg>
